<svg xmlns="http://www.w3.org/2000/svg" xmlns:xlink="http://www.w3.org/1999/xlink" height="1112.619" width="2181.483"><defs><linearGradient id="b"><stop style="stop-color:#d0dcff;stop-opacity:1" offset="0"/><stop style="stop-color:#6c90ff;stop-opacity:1" offset="1"/></linearGradient><linearGradient gradientUnits="userSpaceOnUse" id="a" spreadMethod="pad" x1="388.933" x2="388.933" y1="88.521" y2="707.512"><stop offset="0" stop-color="#f6f8ff"/><stop offset="1" stop-color="#d9e3ff"/></linearGradient><linearGradient gradientUnits="userSpaceOnUse" id="e" spreadMethod="pad" x1="300.495" x2="496.594" y1="293.068" y2="632.721"><stop offset="0" stop-color="#d4e1ff"/><stop offset="1" stop-color="#7798ff"/></linearGradient><linearGradient gradientUnits="userSpaceOnUse" id="f" spreadMethod="pad" x1="368.338" x2="421.297" y1="405.063" y2="496.792"><stop offset="0" stop-color="#f6f8ff"/><stop offset="1" stop-color="#d9e3ff"/></linearGradient><linearGradient gradientUnits="userSpaceOnUse" id="g" spreadMethod="pad" x1="270.539" x2="318.539" y1="234.861" y2="317.999"><stop offset="0" stop-color="#d4e1ff"/><stop offset="1" stop-color="#7798ff"/></linearGradient><linearGradient gradientUnits="userSpaceOnUse" id="h" spreadMethod="pad" x1="521.252" x2="563.097" y1="183.818" y2="256.296"><stop offset="0" stop-color="#d4e1ff"/><stop offset="1" stop-color="#7798ff"/></linearGradient><linearGradient gradientUnits="userSpaceOnUse" id="i" spreadMethod="pad" x1="354.865" x2="402.424" y1="217.863" y2="300.238"><stop offset="0" stop-color="#d4e1ff"/><stop offset="1" stop-color="#7798ff"/></linearGradient><linearGradient gradientUnits="userSpaceOnUse" id="j" spreadMethod="pad" x1="438.366" x2="486.219" y1="200.324" y2="283.208"><stop offset="0" stop-color="#d4e1ff"/><stop offset="1" stop-color="#7798ff"/></linearGradient><linearGradient gradientUnits="userSpaceOnUse" id="k" spreadMethod="pad" x1="201.179" x2="240.838" y1="262.481" y2="331.172"><stop offset="0" stop-color="#d4e1ff"/><stop offset="1" stop-color="#7798ff"/></linearGradient><linearGradient xlink:href="#a" id="d" gradientUnits="userSpaceOnUse" x1="388.933" y1="88.521" x2="388.933" y2="707.512" spreadMethod="pad"/><radialGradient xlink:href="#b" id="c" cx="623.889" cy="506.555" fx="623.889" fy="506.555" r="1090.742" gradientTransform="matrix(1 .00348 -.00287 .82235 468.307 137.57)" gradientUnits="userSpaceOnUse"/></defs><path style="fill:url(#c);fill-opacity:1;stroke:none;stroke-width:0;stroke-miterlimit:4;stroke-dasharray:none;stroke-opacity:.945607" d="M0 0h2181.483v1112.619H0z"/><path d="M1372.386 333.882c0 10.92-8.86 19.78-19.78 19.78-10.92 0-19.78-8.86-19.78-19.78 0-10.92 8.86-19.78 19.78-19.78 10.92 0 19.78 8.86 19.78 19.78z" fill="#f3f6ff"/><path d="M804.266 785.682c0 10.92-8.86 19.78-19.78 19.78-10.92 0-19.78-8.86-19.78-19.78 0-10.92 8.86-19.78 19.78-19.78 10.92 0 19.78 8.86 19.78 19.78zM905.616 847.682c-7.38 0-13.38-6-13.38-13.38 0-7.38 6-13.38 13.38-13.38 7.38 0 13.38 6 13.38 13.38 0 7.38-6 13.38-13.38 13.38zm0-20.33c-3.83 0-6.95 3.12-6.95 6.95s3.12 6.95 6.95 6.95 6.95-3.12 6.95-6.95-3.12-6.95-6.95-6.95z" fill="#dfe7ff"/><path d="M1284.046 274.542h-19.98v-19.98c0-3.66-2.96-6.62-6.62-6.62s-6.62 2.96-6.62 6.62v19.98h-19.98c-3.66 0-6.62 2.96-6.62 6.62s2.96 6.62 6.62 6.62h19.98v19.98c0 3.66 2.96 6.62 6.62 6.62s6.62-2.96 6.62-6.62v-19.98h19.98c3.66 0 6.62-2.96 6.62-6.62s-2.97-6.62-6.62-6.62z" fill="#f3f6ff"/><path d="M1341.626 851.572h-14.84v-14.84c0-3.04-2.47-5.51-5.51-5.51-3.04 0-5.51 2.47-5.51 5.51v14.84h-14.84c-3.04 0-5.51 2.47-5.51 5.51 0 3.04 2.47 5.51 5.51 5.51h14.84v14.84c0 3.04 2.47 5.51 5.51 5.51 3.04 0 5.51-2.47 5.51-5.51v-14.84h14.84c3.04 0 5.51-2.47 5.51-5.51 0-3.04-2.47-5.51-5.51-5.51z" fill="#dfe7ff"/><path d="M806.556 289.992c8.7 8.7 22.82 8.7 31.52 0s8.7-22.82 0-31.52l-6.66-6.66c-8.7-8.7-22.82-8.7-31.52 0s-8.7 22.82 0 31.52zM921.276 281.932c3.97 3.97 10.41 3.97 14.38 0 3.97-3.97 3.97-10.41 0-14.38l-10.01-10.01c-3.97-3.97-10.41-3.97-14.38 0-3.97 3.97-3.97 10.41 0 14.38zM770.206 482.652c3.97 3.97 10.41 3.97 14.38 0 3.97-3.97 3.97-10.41 0-14.38l-10.01-10.01c-3.97-3.97-10.41-3.97-14.38 0-3.97 3.97-3.97 10.41 0 14.38z" fill="#f3f6ff"/><path d="M1298.166 790.112c-3.97-3.97-10.41-3.97-14.38 0-3.97 3.97-3.97 10.41 0 14.38l10.01 10.01c3.97 3.97 10.41 3.97 14.38 0 3.97-3.97 3.97-10.41 0-14.38zM1418.556 798.612c0 18.1-14.67 32.77-32.77 32.77s-32.77-14.67-32.77-32.77 14.67-32.77 32.77-32.77 32.77 14.67 32.77 32.77z" fill="#dfe7ff"/><path d="m700.81 481.26-31.51-31.51-19.97-21.27c-5.17-5.43-5.24-13.94-.16-19.46 5.55-6.03 15.04-6.14 20.72-.23l4.04 4.41 9.32 9.32c5.41 5.41 14.29 5.82 19.8.51 5.61-5.41 5.68-14.35.19-19.84l-18.63-18.63c-6.88-6.88-11.36-15.82-12.66-25.46-18.22-135.4-134.2-239.8-274.58-239.8-4.79 0-9.55.13-14.28.37-5.11.26-10.1-1.61-13.71-5.23L350.24 95.3c-8.55-8.55-22.47-9.18-31.32-.94-9.29 8.65-9.48 23.19-.59 32.09l3.34 3.34 10.41 10.94c6.54 6.92 5.57 18-2.08 23.68-6.51 4.83-14.68 3.26-20.19-2.69l-20.69-20.46-18.04-18.04c-3.83-3.83-10.06-4.28-14.13-.71a10.164 10.164 0 0 0-.49 14.84l13.14 13.14 8.56 8.24c8.7 8.52 8.89 21.8.24 30.36-8.59 8.49-22.45 8.38-30.89-.26l-14.74-15.33-35.31-35.31c-8.7-8.7-22.82-8.7-31.52 0s-8.7 22.82 0 31.52l25.61 25.69 8.98 8.38c8.49 8.43 8.69 22.09.45 30.76-8.82 9.29-23.69 9.11-32.28-.4l-4.96-5.44-15.36-15.44c-12.62-12.62-33.2-13.4-46.16-1.12-13.45 12.73-13.67 33.97-.66 46.98l37.34 37.33 17.8 17.59c6.71 6.64 6.5 17.55-.46 23.93-6.58 6.03-16.76 5.75-22.99-.63l-5.35-5.55-8.11-8.11c-3.97-3.97-10.41-3.97-14.38 0-5.06 4.2-3.69 10.69.06 14.44l17.79 17.79L160.25 392c6.38 6.22 6.41 16.47.08 22.73-6.18 6.11-16.12 6.15-22.34.08l-17.67-17.24-25.96-25.96c-5.41-5.41-14.29-5.82-19.8-.51-5.61 5.41-5.68 14.35-.19 19.84l43.89 43.89c3.55 3.55 5.91 8.11 6.84 13.05 23.49 124.93 130.8 220.27 261.3 225.36 7.2.28 14.06 3.16 19.28 8.14 8.46 8.08 20.27 19.34 20.27 19.34 8.55 8.55 22.47 9.18 31.32.94 9.29-8.65 9.48-23.19.59-32.09l-2.26-2.26-9.81-10.24c-5.59-6.06-5.03-15.55 1.23-20.92 5.93-5.08 14.81-4.58 20.13 1.13l20.22 21.22 22.02 22.02c8.9 8.89 23.44 8.7 32.09-.58 8.24-8.84 7.6-22.77-.94-31.32l-9.5-9.5s-3.02-3.11-6.89-7.09c-9.03-9.28-8.71-24.16.7-33.05l.48-.45c9.02-8.52 23.15-8.43 32.07.2l13.82 13.38 5.91 5.91c3.83 3.83 10.07 4.28 14.13.71 4.46-3.92 4.62-10.72.49-14.84l-5.15-5.15c-.94.44-20.83-20.04-32.63-32.32-4.75-4.94-4.56-12.79.41-17.5 4.95-4.69 12.77-4.47 17.45.48l31.03 32.82 14.15 14.15c12.62 12.62 33.19 13.4 46.16 1.13 13.45-12.73 13.67-33.97.66-46.98l-22.57-22.57-11.4-12.43c-5.57-6.02-5.32-15.38.56-21.1 6.11-5.94 15.92-5.64 21.67.65l2.92 3.4 14.64 14.65c8.9 8.9 23.44 8.7 32.09-.58 8.25-8.81 7.62-22.74-.93-31.28z" fill="url(#a)" style="fill:url(#d)" transform="translate(685.626 165.392)"/><path d="M1114.236 367.532h-14.84v-14.84c0-3.04-2.47-5.51-5.51-5.51-3.04 0-5.51 2.47-5.51 5.51v14.84h-14.84c-3.04 0-5.51 2.47-5.51 5.51 0 3.04 2.47 5.51 5.51 5.51h14.84v14.84c0 3.04 2.47 5.51 5.51 5.51 3.04 0 5.51-2.47 5.51-5.51v-14.84h14.84c3.04 0 5.51-2.47 5.51-5.51 0-3.05-2.47-5.51-5.51-5.51zM1269.996 586.072c-7.38 0-13.38-6-13.38-13.38 0-7.38 6-13.38 13.38-13.38 7.38 0 13.38 6 13.38 13.38-.01 7.38-6.01 13.38-13.38 13.38zm0-20.33c-3.83 0-6.95 3.12-6.95 6.95s3.12 6.95 6.95 6.95 6.95-3.12 6.95-6.95-3.12-6.95-6.95-6.95zM907.346 688.112c-7.38 0-13.38-6-13.38-13.38 0-7.38 6-13.38 13.38-13.38 7.38 0 13.38 6 13.38 13.38 0 7.38-6.01 13.38-13.38 13.38zm0-20.34c-3.83 0-6.95 3.12-6.95 6.95s3.12 6.95 6.95 6.95 6.95-3.12 6.95-6.95-3.12-6.95-6.95-6.95z" fill="#fff"/><g><path d="M560.21 590.55H236.88c-19.39 0-35.12-15.72-35.12-35.12V370.35c0-19.39 15.72-35.12 35.12-35.12h323.34c19.39 0 35.12 15.72 35.12 35.12v185.08c-.01 19.4-15.73 35.12-35.13 35.12z" fill="url(#e)" style="fill:url(#e)" transform="translate(685.626 165.392)"/><path d="m462.75 452.93-82.91-47.87c-7.67-4.43-17.26 1.11-17.26 9.96v95.73c0 8.86 9.59 14.39 17.26 9.96l82.91-47.87c7.67-4.41 7.67-15.48 0-19.91z" fill="url(#f)" style="fill:url(#f)" transform="translate(685.626 165.392)"/><path d="M968.066 551.272h-39.46c-7.07 0-12.81-5.74-12.81-12.81s5.74-12.81 12.81-12.81h39.46c7.07 0 12.81 5.74 12.81 12.81s-5.74 12.81-12.81 12.81z" fill="#fff"/><path d="m292.69 310.72 59.9-12.38-56.2-56.2-59.9 12.38z" fill="url(#g)" style="fill:url(#g)" transform="translate(685.626 165.392)"/><path d="m545.47 258.49 18.11-3.74c11.72-2.42 19.26-13.89 16.84-25.61l-4.67-22.59c-2.42-11.72-13.89-19.26-25.61-16.84l-60.87 12.58z" fill="url(#h)" style="fill:url(#h)" transform="translate(685.626 165.392)"/><path d="m379.12 225.05-57.15 11.81 56.2 56.2 57.15-11.81z" fill="url(#i)" style="fill:url(#i)" transform="translate(685.626 165.392)"/><path d="m463.68 207.57-58.98 12.19 56.2 56.2 58.98-12.19z" fill="url(#j)" style="fill:url(#j)" transform="translate(685.626 165.392)"/><path d="m210.91 259.8-4.49.93c-11.72 2.42-19.26 13.89-16.84 25.61l4.67 22.59c2.42 11.72 13.89 19.26 25.61 16.84l47.25-9.76z" fill="url(#k)" style="fill:url(#k)" transform="translate(685.626 165.392)"/></g></svg>